<svg xmlns="http://www.w3.org/2000/svg" viewBox="0 0 1024 1024">
  <defs>
    <linearGradient id="bgGrad" x1="0%" y1="0%" x2="0%" y2="100%">
      <stop offset="0%" style="stop-color:#2a4f7a"/>
      <stop offset="100%" style="stop-color:#132d4a"/>
    </linearGradient>
    <linearGradient id="sGrad" x1="0%" y1="0%" x2="100%" y2="100%">
      <stop offset="0%" style="stop-color:#d4a574"/>
      <stop offset="100%" style="stop-color:#b8956e"/>
    </linearGradient>
    <linearGradient id="accentGrad" x1="0%" y1="0%" x2="0%" y2="100%">
      <stop offset="0%" style="stop-color:#e8c89a"/>
      <stop offset="100%" style="stop-color:#c9a66b"/>
    </linearGradient>
  </defs>

  <!-- Background rounded square -->
  <rect x="0" y="0" width="1024" height="1024" rx="220" ry="220" fill="url(#bgGrad)"/>

  <!-- Subtle book spine lines on left -->
  <line x1="180" y1="280" x2="180" y2="744" stroke="#1a3a5a" stroke-width="3" stroke-linecap="round"/>
  <line x1="200" y1="300" x2="200" y2="724" stroke="#1a3a5a" stroke-width="2" stroke-linecap="round"/>

  <!-- Stylized S lettermark -->
  <path d="M 620 280
           C 420 280, 340 340, 340 440
           C 340 520, 400 560, 512 580
           C 624 600, 684 640, 684 720
           C 684 800, 600 860, 420 860"
        fill="none"
        stroke="url(#sGrad)"
        stroke-width="85"
        stroke-linecap="round"
        stroke-linejoin="round"/>

  <!-- Top serif/book page detail -->
  <path d="M 620 280 L 680 250 L 680 310 Z" fill="url(#accentGrad)"/>

  <!-- Bottom serif/book page detail -->
  <path d="M 420 860 L 360 890 L 360 830 Z" fill="url(#accentGrad)"/>

  <!-- Subtle cross accent in negative space -->
  <line x1="512" y1="480" x2="512" y2="560" stroke="#e8c89a" stroke-width="8" stroke-linecap="round" opacity="0.4"/>
  <line x1="472" y1="520" x2="552" y2="520" stroke="#e8c89a" stroke-width="8" stroke-linecap="round" opacity="0.4"/>
</svg>
